<?xml version="1.0" encoding="UTF-8" standalone="no"?>
<!-- Created with Inkscape (http://www.inkscape.org/) -->

<svg
   version="1.1"
   id="svg1"
   width="665.02582"
   height="665.03009"
   viewBox="0 0 665.02582 665.03009"
   sodipodi:docname="harborhearthlogo.svg"
   inkscape:version="1.3.2 (091e20e, 2023-11-25, custom)"
   xmlns:inkscape="http://www.inkscape.org/namespaces/inkscape"
   xmlns:sodipodi="http://sodipodi.sourceforge.net/DTD/sodipodi-0.dtd"
   xmlns="http://www.w3.org/2000/svg"
   xmlns:svg="http://www.w3.org/2000/svg">
  <defs
     id="defs1">
    <clipPath
       clipPathUnits="userSpaceOnUse"
       id="clipPath49">
      <path
         d="M 0,500.001 H 500 V 0 H 0 Z"
         transform="translate(-173.40621,-251.20651)"
         id="path49" />
    </clipPath>
    <clipPath
       clipPathUnits="userSpaceOnUse"
       id="clipPath50">
      <path
         d="M 190.802,311.38 H 311.151 V 191.031 H 190.802 Z"
         transform="translate(-190.8027,-251.20651)"
         id="path50" />
    </clipPath>
    <clipPath
       clipPathUnits="userSpaceOnUse"
       id="clipPath52">
      <path
         d="M 0,500.001 H 500 V 0 H 0 Z"
         transform="matrix(1.3333333,0,0,-1.3333333,0,666.668)"
         id="path52" />
    </clipPath>
    <clipPath
       clipPathUnits="userSpaceOnUse"
       id="clipPath53">
      <path
         d="m 215.184,286.999 h 71.585 v -71.585 h -71.585 z"
         transform="translate(-215.18361,-251.20651)"
         id="path53" />
    </clipPath>
    <clipPath
       clipPathUnits="userSpaceOnUse"
       id="clipPath55">
      <path
         d="M 0,500.001 H 500 V 0 H 0 Z"
         transform="matrix(1.3333333,0,0,-1.3333333,0,666.668)"
         id="path55" />
    </clipPath>
    <clipPath
       clipPathUnits="userSpaceOnUse"
       id="clipPath57">
      <path
         d="M 0,500.001 H 500 V 0 H 0 Z"
         transform="translate(-242.87211,-257.01421)"
         id="path57" />
    </clipPath>
    <clipPath
       clipPathUnits="userSpaceOnUse"
       id="clipPath59">
      <path
         d="M 0,500.001 H 500 V 0 H 0 Z"
         transform="translate(-249.21681,-314.68801)"
         id="path59" />
    </clipPath>
    <clipPath
       clipPathUnits="userSpaceOnUse"
       id="clipPath61">
      <path
         d="M 0,500.001 H 500 V 0 H 0 Z"
         transform="translate(-325.03321,-229.9414)"
         id="path61" />
    </clipPath>
    <clipPath
       clipPathUnits="userSpaceOnUse"
       id="clipPath63">
      <path
         d="M 0,500.001 H 500 V 0 H 0 Z"
         transform="translate(-282.3301,-207.58011)"
         id="path63" />
    </clipPath>
    <clipPath
       clipPathUnits="userSpaceOnUse"
       id="clipPath65">
      <path
         d="M 0,500.001 H 500 V 0 H 0 Z"
         transform="translate(-220.8496,-215.7109)"
         id="path65" />
    </clipPath>
    <clipPath
       clipPathUnits="userSpaceOnUse"
       id="clipPath67">
      <path
         d="M 0,500.001 H 500 V 0 H 0 Z"
         transform="translate(-212.28121,-235.2871)"
         id="path67" />
    </clipPath>
    <clipPath
       clipPathUnits="userSpaceOnUse"
       id="clipPath69">
      <path
         d="M 0,500.001 H 500 V 0 H 0 Z"
         transform="translate(-216.4756,-273.1411)"
         id="path69" />
    </clipPath>
    <clipPath
       clipPathUnits="userSpaceOnUse"
       id="clipPath71">
      <path
         d="M 0,500.001 H 500 V 0 H 0 Z"
         transform="translate(-229.33201,-288.0718)"
         id="path71" />
    </clipPath>
    <clipPath
       clipPathUnits="userSpaceOnUse"
       id="clipPath73">
      <path
         d="M 0,500.001 H 500 V 0 H 0 Z"
         transform="translate(-224.1484,-267.89211)"
         id="path73" />
    </clipPath>
    <clipPath
       clipPathUnits="userSpaceOnUse"
       id="clipPath75">
      <path
         d="M 0,500.001 H 500 V 0 H 0 Z"
         transform="translate(-221.98441,-254.66751)"
         id="path75" />
    </clipPath>
    <clipPath
       clipPathUnits="userSpaceOnUse"
       id="clipPath77">
      <path
         d="M 0,500.001 H 500 V 0 H 0 Z"
         transform="translate(-243.85351,-214.60741)"
         id="path77" />
    </clipPath>
    <clipPath
       clipPathUnits="userSpaceOnUse"
       id="clipPath79">
      <path
         d="M 0,500.001 H 500 V 0 H 0 Z"
         transform="translate(-261.2461,-208.39651)"
         id="path79" />
    </clipPath>
    <clipPath
       clipPathUnits="userSpaceOnUse"
       id="clipPath81">
      <path
         d="M 0,500.001 H 500 V 0 H 0 Z"
         transform="translate(-173.40621,-251.20651)"
         id="path81" />
    </clipPath>
  </defs>
  <sodipodi:namedview
     id="namedview1"
     pagecolor="#ffffff"
     bordercolor="#000000"
     borderopacity="0.25"
     inkscape:showpageshadow="2"
     inkscape:pageopacity="0.0"
     inkscape:pagecheckerboard="0"
     inkscape:deskcolor="#d1d1d1"
     inkscape:zoom="0.87080022"
     inkscape:cx="333.6012"
     inkscape:cy="281.9246"
     inkscape:window-width="1920"
     inkscape:window-height="1017"
     inkscape:window-x="-8"
     inkscape:window-y="-8"
     inkscape:window-maximized="1"
     inkscape:current-layer="layer-MC1" />
  <g
     id="layer-MC1"
     inkscape:groupmode="layer"
     inkscape:label="OBJECTS"
     transform="matrix(3.1626533,0,0,3.1626533,-725.82346,-716.62351)">
    <path
       id="path48"
       d="m 0,0 c 0,-42.841 34.729,-77.572 77.57,-77.572 42.842,0 77.571,34.731 77.571,77.572 0,42.841 -34.729,77.57 -77.571,77.57 C 34.729,77.57 0,42.841 0,0"
       style="fill:#ff7c48;fill-opacity:1;fill-rule:nonzero;stroke:none"
       transform="matrix(1.3333333,0,0,-1.3333333,231.20827,331.726)"
       clip-path="url(#clipPath49)"
       inkscape:export-filename="logo2.svg"
       inkscape:export-xdpi="96"
       inkscape:export-ydpi="96" />
    <g
       opacity="0.399994"
       id="g51"
       clip-path="url(#clipPath52)">
      <path
         d="m 0,0 c 0,-33.234 26.94,-60.175 60.174,-60.175 33.234,0 60.174,26.941 60.174,60.175 0,33.233 -26.94,60.174 -60.174,60.174 C 26.94,60.174 0,33.233 0,0"
         style="fill:#ffbf3e;fill-opacity:1;fill-rule:nonzero;stroke:none"
         transform="matrix(1.3333333,0,0,-1.3333333,254.4036,331.726)"
         clip-path="url(#clipPath50)"
         id="path51" />
    </g>
    <g
       opacity="0.399994"
       id="g54"
       clip-path="url(#clipPath55)">
      <path
         d="m 0,0 c 0,-19.769 16.025,-35.792 35.793,-35.792 19.768,0 35.793,16.023 35.793,35.792 0,19.768 -16.025,35.792 -35.793,35.792 C 16.025,35.792 0,19.768 0,0"
         style="fill:#ffbf3e;fill-opacity:1;fill-rule:nonzero;stroke:none"
         transform="matrix(1.3333333,0,0,-1.3333333,286.91147,331.726)"
         clip-path="url(#clipPath53)"
         id="path54" />
    </g>
    <path
       id="path56"
       d="m 0,0 c 0,0 6.932,-5.94 20.22,-5.94 12.961,0 30.834,8.035 35.996,27.283 C 61.38,40.592 51.546,64.37 23.479,69.034 -7.404,74.167 -53.819,63.53 -67.03,12.1 c -12.741,-49.583 26.892,-90.272 63.055,-94.843 39.113,-4.939 74.974,16.575 86.136,55.537 0,0 -5.086,-10.949 -18.828,-9.127 -11.244,1.491 -15.67,12.42 -15.67,12.42 0,0 -12.066,-13.476 -31.445,-10.589 -19.383,2.888 -35.887,20.253 -31.793,44.13 3.84,22.396 22.71,26.777 30.928,18.357 8.212,-8.42 5.689,-16.517 3.121,-20.944 C 15.903,2.613 8.7,-2.451 0,0"
       style="fill:#0e7490;fill-opacity:1;fill-rule:nonzero;stroke:#0c2a6d;stroke-width:1.283;stroke-linecap:round;stroke-linejoin:round;stroke-miterlimit:10;stroke-dasharray:none;stroke-opacity:1"
       transform="matrix(1.3333333,0,0,-1.3333333,323.82947,323.9824)"
       clip-path="url(#clipPath57)" />
    <path
       id="path58"
       d="m 0,0 c 20.424,-5.667 31.779,-21.585 28.305,-40.257 -2.77,-14.889 -20.766,-22.75 -34.65,-17.284 0,0 6.932,-5.94 20.22,-5.94 12.961,0 30.834,8.035 35.996,27.283 C 55.035,-16.949 45.24,6.903 17.35,12.522 -8.278,17.685 -39.033,10.118 -59.03,-15.456 -41.143,1.001 -16.56,4.597 0,0"
       style="fill:#22d3ee;fill-opacity:1;fill-rule:nonzero;stroke:#0c2a6d;stroke-width:1.283;stroke-linecap:round;stroke-linejoin:round;stroke-miterlimit:10;stroke-dasharray:none;stroke-opacity:1"
       transform="matrix(1.3333333,0,0,-1.3333333,332.28907,247.084)"
       clip-path="url(#clipPath59)" />
    <path
       id="path60"
       d="m 0,0 c 0,0 -5.086,-10.949 -18.828,-9.127 -11.244,1.49 -15.67,12.42 -15.67,12.42 0,0 -12.066,-13.477 -31.445,-10.59 -19.383,2.889 -35.887,20.254 -31.793,44.13 3.84,22.397 22.71,26.778 30.927,18.358 1.498,-1.54 2.639,-3.07 3.489,-4.567 v 10e-4 c -3.692,7.774 -17.629,17.446 -36.833,9.912 -20.675,-8.113 -38.033,-36.998 -21.154,-71.422 14.152,-28.857 55.721,-38.226 79.453,-38.252 C -22.158,-40.229 -6.664,-23.254 0,0"
       style="fill:#164e63;fill-opacity:1;fill-rule:nonzero;stroke:#0c2a6d;stroke-width:1.283;stroke-linecap:round;stroke-linejoin:round;stroke-miterlimit:10;stroke-dasharray:none;stroke-opacity:1"
       transform="matrix(1.3333333,0,0,-1.3333333,433.3776,360.07947)"
       clip-path="url(#clipPath61)" />
    <path
       id="path62"
       d="m 0,0 c 0,0 -5.502,-11.855 -20.385,-9.883 -12.176,1.615 -16.967,13.449 -16.967,13.449 0,0 -9.077,-10.082 -24.22,-11.666 18.711,-13.685 45.228,-18.658 62.422,-18.675 9.582,4.334 18.132,10.607 25.195,18.55 C 24.367,-9.002 22.496,-9.602 20.387,-9.883 5.502,-11.855 0,0 0,0"
       style="fill:#22d3ee;fill-opacity:1;fill-rule:nonzero;stroke:#0c2a6d;stroke-width:1.283;stroke-linecap:round;stroke-linejoin:round;stroke-miterlimit:10;stroke-dasharray:none;stroke-opacity:1"
       transform="matrix(1.3333333,0,0,-1.3333333,376.44013,389.89453)"
       clip-path="url(#clipPath63)" />
    <path
       id="path64"
       d="M 0,0 C 1.354,-1.969 2.848,-3.828 4.458,-5.588"
       style="fill:none;stroke:#0c2a6d;stroke-width:1.283;stroke-linecap:round;stroke-linejoin:round;stroke-miterlimit:10;stroke-dasharray:none;stroke-opacity:1"
       transform="matrix(1.3333333,0,0,-1.3333333,294.46613,379.05347)"
       clip-path="url(#clipPath65)" />
    <path
       id="path66"
       d="M 0,0 C 1.106,-4.385 2.756,-8.904 5.021,-13.527"
       style="fill:none;stroke:#0c2a6d;stroke-width:1.283;stroke-linecap:round;stroke-linejoin:round;stroke-miterlimit:10;stroke-dasharray:none;stroke-opacity:1"
       transform="matrix(1.3333333,0,0,-1.3333333,283.0416,352.95187)"
       clip-path="url(#clipPath67)" />
    <path
       id="path68"
       d="M 0,0 C -4.49,-8.24 -6.864,-18.35 -5.673,-29.614"
       style="fill:none;stroke:#0c2a6d;stroke-width:1.283;stroke-linecap:round;stroke-linejoin:round;stroke-miterlimit:10;stroke-dasharray:none;stroke-opacity:1"
       transform="matrix(1.3333333,0,0,-1.3333333,288.63413,302.47987)"
       clip-path="url(#clipPath69)" />
    <path
       id="path70"
       d="M 0,0 C -2.953,-2.198 -5.711,-4.845 -8.156,-7.882"
       style="fill:none;stroke:#0c2a6d;stroke-width:1.283;stroke-linecap:round;stroke-linejoin:round;stroke-miterlimit:10;stroke-dasharray:none;stroke-opacity:1"
       transform="matrix(1.3333333,0,0,-1.3333333,305.776,282.57227)"
       clip-path="url(#clipPath71)" />
    <path
       id="path72"
       d="M 0,0 C 3.818,12.354 11.906,18.926 19.874,20.609"
       style="fill:none;stroke:#0c2a6d;stroke-width:1.283;stroke-linecap:round;stroke-linejoin:round;stroke-miterlimit:10;stroke-dasharray:none;stroke-opacity:1"
       transform="matrix(1.3333333,0,0,-1.3333333,298.86453,309.47853)"
       clip-path="url(#clipPath73)" />
    <path
       id="path74"
       d="M 0,0 C 0.074,2.34 0.314,4.742 0.736,7.201"
       style="fill:none;stroke:#0c2a6d;stroke-width:1.283;stroke-linecap:round;stroke-linejoin:round;stroke-miterlimit:10;stroke-dasharray:none;stroke-opacity:1"
       transform="matrix(1.3333333,0,0,-1.3333333,295.9792,327.11133)"
       clip-path="url(#clipPath75)" />
    <path
       id="path76"
       d="M 0,0 C -10.305,6.152 -18.229,16.221 -20.909,28.92"
       style="fill:none;stroke:#0c2a6d;stroke-width:1.283;stroke-linecap:round;stroke-linejoin:round;stroke-miterlimit:10;stroke-dasharray:none;stroke-opacity:1"
       transform="matrix(1.3333333,0,0,-1.3333333,325.138,380.5248)"
       clip-path="url(#clipPath77)" />
    <path
       id="path78"
       d="M 0,0 C -4.162,0.619 -8.212,1.789 -12.033,3.455"
       style="fill:none;stroke:#0c2a6d;stroke-width:1.283;stroke-linecap:round;stroke-linejoin:round;stroke-miterlimit:10;stroke-dasharray:none;stroke-opacity:1"
       transform="matrix(1.3333333,0,0,-1.3333333,348.32813,388.806)"
       clip-path="url(#clipPath79)" />
    <path
       id="path80"
       d="m 0,0 c 0,-42.841 34.729,-77.572 77.57,-77.572 42.842,0 77.571,34.731 77.571,77.572 0,42.841 -34.729,77.57 -77.571,77.57 C 34.729,77.57 0,42.841 0,0 Z"
       style="fill:none;stroke:#0c2a6d;stroke-width:2.565;stroke-linecap:round;stroke-linejoin:round;stroke-miterlimit:10;stroke-dasharray:none;stroke-opacity:1"
       transform="matrix(1.3333333,0,0,-1.3333333,231.20827,331.726)"
       clip-path="url(#clipPath81)" />
  </g>
</svg>
